<?xml version="1.0" encoding="UTF-8" standalone="no"?>
<!-- Created with Inkscape (http://www.inkscape.org/) -->

<svg
   width="279.06461mm"
   height="279.035mm"
   viewBox="0 0 279.06461 279.035"
   version="1.1"
   id="svg8"
   inkscape:version="1.2.1 (9c6d41e4, 2022-07-14)"
   sodipodi:docname="FaculdadeLuis.svg"
   xmlns:inkscape="http://www.inkscape.org/namespaces/inkscape"
   xmlns:sodipodi="http://sodipodi.sourceforge.net/DTD/sodipodi-0.dtd"
   xmlns="http://www.w3.org/2000/svg"
   xmlns:svg="http://www.w3.org/2000/svg"
   xmlns:rdf="http://www.w3.org/1999/02/22-rdf-syntax-ns#"
   xmlns:cc="http://creativecommons.org/ns#"
   xmlns:dc="http://purl.org/dc/elements/1.1/">
  <defs
     id="defs2" />
  <sodipodi:namedview
     id="base"
     pagecolor="#ffffff"
     bordercolor="#666666"
     borderopacity="1.0"
     inkscape:pageopacity="0.0"
     inkscape:pageshadow="2"
     inkscape:zoom="0.39266404"
     inkscape:cx="26.740417"
     inkscape:cy="541.1751"
     inkscape:document-units="mm"
     inkscape:current-layer="g988"
     showgrid="false"
     fit-margin-top="0"
     fit-margin-left="0"
     fit-margin-right="0"
     fit-margin-bottom="0"
     inkscape:window-width="1623"
     inkscape:window-height="779"
     inkscape:window-x="0"
     inkscape:window-y="94"
     inkscape:window-maximized="0"
     inkscape:showpageshadow="2"
     inkscape:pagecheckerboard="0"
     inkscape:deskcolor="#d1d1d1" />
  <metadata
     id="metadata5">
    <rdf:RDF>
      <cc:Work
         rdf:about="">
        <dc:format>image/svg+xml</dc:format>
        <dc:type
           rdf:resource="http://purl.org/dc/dcmitype/StillImage" />
        <dc:title />
      </cc:Work>
    </rdf:RDF>
  </metadata>
  <g
     inkscape:label="Layer 1"
     inkscape:groupmode="layer"
     id="layer1"
     transform="translate(458.11757,101.76894)">
    <g
       id="g988">
      <rect
         y="-15.518803"
         x="-419.9321"
         height="138.92433"
         width="58.036945"
         id="rect852-8"
         style="opacity:1;fill:#cddde8;fill-opacity:1;stroke:#cddde8;stroke-width:4;stroke-linecap:round;stroke-linejoin:round;stroke-miterlimit:4;stroke-dasharray:none;stroke-dashoffset:0;stroke-opacity:1" />
      <rect
         y="36.695469"
         x="-419.51907"
         height="46.778111"
         width="99.268944"
         id="rect852"
         style="opacity:1;fill:#2274ac;fill-opacity:1;stroke:#2274ac;stroke-width:4;stroke-linecap:round;stroke-linejoin:round;stroke-miterlimit:4;stroke-dasharray:none;stroke-dashoffset:0;stroke-opacity:1" />
      <path
         sodipodi:nodetypes="cccccc"
         inkscape:connector-curvature="0"
         id="rect852-2"
         d="m -419.83196,-59.255667 h 159.06643 l 65.52962,-0.190407 -65.52962,44.224934 h -159.06643 z"
         style="opacity:1;fill:#2274ac;fill-opacity:1;stroke:#2274ac;stroke-width:4;stroke-linecap:round;stroke-linejoin:round;stroke-miterlimit:4;stroke-dasharray:none;stroke-dashoffset:0;stroke-opacity:0.99019605" />
      <path
         sodipodi:nodetypes="csccccscsscsccscccccccssccsccccccccsccssssccccccssccccssccccsccccssccccccscc"
         inkscape:connector-curvature="0"
         id="path844-5"
         d="m -201.28836,-101.76894 c -2.71139,0.003 -5.23741,2.308885 -5.23741,5.411035 0,2.09185 0.26032,2.54462 2.69855,4.69016 l 2.69854,2.37453 h -116.78979 -116.79028 v -4.13102 c 0,-3.83869 -0.11277,-4.24327 -1.59369,-5.72419 -1.17311,-1.173105 -2.11293,-1.593705 -3.56258,-1.593705 -4.01109,0 -5.74744,2.495225 -5.74744,8.259445 v 3.18947 h -3.23546 c -3.80812,0 -5.94863,0.69268 -7.24712,2.34508 -1.52882,1.9455 -1.24542,5.09216 0.62735,6.96494 1.48048,1.48047 1.8863,1.59371 5.71749,1.59371 h 4.12377 l 0.14367,62.46802 0.14263,62.468028 1.78076,1.5906 c 2.57886,2.3041 5.6252,1.99875 7.88429,-0.79013 0.88005,-1.08642 0.94362,-5.2572 0.95392,-63.449888 l 0.0124,-62.28663 h 116.94117 c 64.31772,0 116.9412,0.0807 116.9412,0.17983 0,0.0991 -1.07066,0.94907 -2.37917,1.88877 -3.92494,2.81868 -4.57434,6.29219 -1.71205,9.15449 0.95114,0.95111 1.91867,1.31619 3.48971,1.31619 1.93582,0 3.21056,-0.77364 11.64995,-7.06882 5.36012,-3.99828 9.75508,-7.68006 10.11772,-8.47597 0.87778,-1.92652 0.80428,-3.60682 -0.22272,-5.07307 -0.84429,-1.20539 -16.77525,-13.46649 -19.13579,-14.727785 -0.73685,-0.39371 -1.51045,-0.5738 -2.26964,-0.57309 z M -241.8983,38.824033 c -1.54182,0 -6.03285,2.90042 -13.53405,8.73952 -31.18821,24.27758 -54.53055,57.461227 -60.73894,86.347187 -0.90313,4.20197 -0.94724,4.2765 -1.68466,2.86907 -0.86333,-1.64778 -3.3234,-3.09386 -5.26272,-3.09386 -1.54884,0 -4.07569,1.84617 -4.7661,3.48247 -0.84592,2.0047 -0.15303,3.76546 4.97798,12.6509 5.77591,10.00219 6.76537,11.12542 9.80199,11.12542 2.58167,0 3.9328,-1.12367 12.59353,-10.47429 5.46296,-5.89811 5.91387,-6.55069 5.91387,-8.55607 0,-3.27896 -1.90313,-5.23017 -5.10152,-5.23017 -2.07727,0 -2.78952,0.3033 -4.47775,1.90789 l -2.00763,1.90841 0.34882,-2.77399 c 1.269,-10.09165 7.95232,-25.15954 17.51005,-39.477687 11.80947,-17.69144 27.66193,-33.84751 46.0654,-46.94701 2.54872,-1.81419 4.93215,-3.83015 5.29632,-4.48034 1.97418,-3.52464 -0.78562,-7.99745 -4.93459,-7.99745 z m -197.9073,21.44572 c -2.28266,-0.0375 -4.56268,1.37985 -5.44203,3.63285 -1.03457,2.65075 2.00179,7.08743 4.85034,7.08743 1.80729,0 4.41968,-1.37375 5.12733,-2.69596 1.39081,-2.59876 0.0284,-6.52875 -2.64789,-7.63726 -0.60886,-0.25221 -1.24859,-0.37656 -1.88775,-0.38706 z m -0.33589,21.06797 c -2.11013,0.0226 -4.13668,1.25272 -4.88497,3.39927 -0.39394,1.12989 -0.586,12.95298 -0.586,36.067047 v 34.38654 l -2.37453,-2.69855 c -2.14553,-2.43823 -2.59781,-2.69853 -4.68964,-2.69853 -1.9228,0 -2.58291,0.29945 -3.89485,1.76784 -1.67444,1.87403 -1.9885,3.7836 -0.94363,5.73918 1.26129,2.36055 13.5224,18.29097 14.72779,19.13526 1.46624,1.027 3.14653,1.10104 5.07307,0.22325 0.79592,-0.36263 4.47769,-4.7576 8.47597,-10.11774 6.29518,-8.43935 7.06882,-9.71408 7.06882,-11.64992 0,-1.57103 -0.36507,-2.53858 -1.3162,-3.48972 -2.87888,-2.87883 -6.33582,-2.2124 -9.19789,1.77354 l -1.75234,2.44068 -0.27286,-35.81849 -0.27234,-35.817967 -1.5296,-1.31568 c -1.06815,-0.91863 -2.36471,-1.33955 -3.6308,-1.32601 z"
         style="fill:#2274ac;stroke-width:0.54504167;stroke-dasharray:none;fill-opacity:1" />
    </g>
  </g>
</svg>
